<?xml version="1.0" standalone="no"?>
<!DOCTYPE svg PUBLIC "-//W3C//DTD SVG 20010904//EN"
 "http://www.w3.org/TR/2001/REC-SVG-20010904/DTD/svg10.dtd">
<svg version="1.0" xmlns="http://www.w3.org/2000/svg"
 width="24.000000pt" height="24.000000pt" viewBox="0 0 24.000000 24.000000"
 preserveAspectRatio="xMidYMid meet">

<g transform="translate(0.000000,24.000000) scale(0.100000,-0.100000)"
fill="#000000" stroke="none">
<path d="M75 231 c-45 -20 -70 -60 -70 -112 0 -42 5 -53 33 -81 28 -28 39 -33
82 -33 43 0 54 5 82 33 28 28 33 39 33 82 0 42 -5 54 -31 81 -33 33 -92 46
-129 30z m63 -62 c31 17 62 -13 62 -58 0 -26 -5 -41 -15 -45 -17 -6 -55 26
-55 46 0 7 -13 -2 -29 -20 -37 -40 -61 -34 -61 14 0 45 32 79 60 64 13 -7 26
-7 38 -1z"/>
<path d="M73 148 c-30 -38 -21 -85 9 -50 25 29 28 39 14 51 -10 8 -16 8 -23
-1z"/>
<path d="M135 150 c-10 -16 35 -74 48 -61 7 7 8 20 1 38 -10 29 -37 42 -49 23z"/>
</g>
</svg>
